<svg width="48px" height="35px" viewBox="0 0 48 35" version="1.1" xmlns="http://www.w3.org/2000/svg"><g id="Design" stroke="none" stroke-width="1" fill="none" fill-rule="evenodd"><g id="design" transform="translate(-720.000000, -4649.000000)" fill="#0B254B" fill-rule="nonzero"><g id="testi" transform="translate(0.000000, 4584.000000)"><g id="Group-51" transform="translate(192.000000, 0.000000)"><g id="Group-25" transform="translate(528.000000, 65.000000)"><g id="Group-49"><path d="M1.39904553,34.3241379 C-4.21695447,5.37068966 8.09504553,0.651724138 20.1910455,1.95399252e-14 L21.5950455,6.40862069 C13.9270455,7.49482759 10.9030455,11.8396552 11.4430455,17.5965517 L18.1390455,17.5965517 L18.1390455,34.3241379 C12.0350455,34.3321839 6.45504553,34.3321839 1.39904553,34.3241379 Z" id="“"></path><path d="M27.1820911,34.3241379 C21.5660911,5.37068966 33.8780911,0.651724138 45.9740911,1.95399252e-14 L47.3780911,6.40862069 C39.7100911,7.49482759 36.6860911,11.8396552 37.2260911,17.5965517 L43.9220911,17.5965517 L43.9220911,34.3241379 C37.8180911,34.3321839 32.2380911,34.3321839 27.1820911,34.3241379 Z" id="“"></path></g></g></g></g></g></g></svg>