<svg width="419px" height="464px" viewBox="0 0 419 464" version="1.1" xmlns="http://www.w3.org/2000/svg"><defs><linearGradient x1="18.0033037%" y1="11.8317545%" x2="18.0033037%" y2="97.2262307%" id="linearGradient-1"><stop stop-color="#FFC529" stop-opacity="0" offset="0%"></stop><stop stop-color="#FFC529" offset="100%"></stop></linearGradient><linearGradient x1="18.0033037%" y1="11.8317545%" x2="18.0033037%" y2="97.2262307%" id="linearGradient-2"><stop stop-color="#267FFD" stop-opacity="0" offset="0%"></stop><stop stop-color="#267FFD" stop-opacity="0.05" offset="100%"></stop></linearGradient></defs><g id="Design" stroke="none" stroke-width="1" fill="none" fill-rule="evenodd"><g id="design" transform="translate(-226.000000, -4596.000000)"><g id="testi" transform="translate(0.000000, 4584.000000)"><g id="Group-51" transform="translate(192.000000, 0.000000)"><g id="Group-59"><g id="Group-26"><circle id="Oval" fill="url(#linearGradient-1)" transform="translate(121.500000, 135.500000) rotate(-60.000000) translate(-121.500000, -135.500000) " cx="121.5" cy="135.5" r="88.5"></circle><path d="M100.240159,172.349973 C100.240159,270.697151 135.029462,360.937739 193.000085,431.49074 C224.535899,469.871323 262.93181,502.425716 306.319097,527.289539 C308.933978,528.788041 311.56699,530.258609 314.217722,531.700835 C316.049373,532.69741 317.889485,533.680452 319.737923,534.649826" id="Path" stroke="#0B254B" stroke-width="20" opacity="0.2" stroke-linejoin="round" stroke-dasharray="1,6" transform="translate(209.989041, 353.499900) rotate(-205.000000) translate(-209.989041, -353.499900) "></path><rect id="Rectangle" fill="url(#linearGradient-2)" transform="translate(276.500000, 188.500000) rotate(-120.000000) translate(-276.500000, -188.500000) " x="139" y="51" width="275" height="275" rx="32"></rect></g></g></g></g></g></g></svg>