<svg width="100px" height="26px" viewBox="0 0 100 26" version="1.1" xmlns="http://www.w3.org/2000/svg">
  <g
    id="Design"
    stroke="none"
    stroke-width="1"
    fill="none"
    fill-rule="evenodd"
  >
    <g
      id="design---V2"
      transform="translate(-240.000000, -48.000000)"
      fill-rule="nonzero"
    >
      <g id="Group-4" transform="translate(0.000000, 8.000000)">
        <g id="head" transform="translate(240.000000, 40.000000)">
          <g id="logo">
            <polygon
              id="Shape"
              fill="#0B254B"
              points="85.5954583 4.55663943 88.5118283 14.955864 91.4281983 4.55663943 94.9278422 4.55663943 90.2616502 21.1953988 86.7620063 21.1953988 83.8456363 10.7961742 80.9292665 21.1953988 77.4296224 21.1953988 72.7634305 4.55663943 76.2630745 4.55663943 79.1794444 14.955864 82.0958144 4.55663943"
            ></polygon>
            <path
              d="M97.1995026,17 L97.2250073,17 C98.3856134,17 99.3264706,17.955194 99.3264706,19.1334856 L99.3264706,19.1745144 C99.3264706,20.3528059 98.3856134,21.308 97.2250073,21.308 L97.1995026,21.308 C96.0388963,21.308 95.0980393,20.3528059 95.0980393,19.1745144 L95.0980393,19.1334856 C95.0980393,17.955194 96.0388963,17 97.1995026,17 Z"
              id="Rectangle-path"
              fill="#267FFD"
            ></path>
            <path
              d="M63.5672838,4.55663943 L63.5864465,4.55663943 C68.0910215,4.55663943 71.7427011,8.28135258 71.7427011,12.8760191 C71.7427011,17.4706856 68.0910215,21.1953988 63.5864465,21.1953988 L63.5672838,21.1953988 C59.0627088,21.1953988 55.4110293,17.4706856 55.4110293,12.8760191 C55.4110293,8.28135258 59.0627088,4.55663943 63.5672838,4.55663943 Z M63.5713901,8.12208786 C60.9973472,8.12208786 58.9106733,10.2504954 58.9106733,12.8760191 C58.9106733,15.5015428 60.9973472,17.6299502 63.5713901,17.6299502 L63.5823402,17.6299502 C66.156383,17.6299502 68.2430571,15.5015428 68.2430571,12.8760191 C68.2430571,10.2504954 66.156383,8.12208786 63.5823402,8.12208786 L63.5713901,8.12208786 Z"
              id="Shape"
              fill="#0B254B"
            ></path>
            <path
              d="M48.4117413,5.34777335 C48.4117413,2.39405916 50.7592496,-0.000399285714 53.6550478,-0.000399285714 L53.6612072,-0.000399285714 L53.6612072,3.56504914 C52.6948072,3.56504914 51.9113852,4.36413957 51.9113852,5.34986756 L51.9113852,10.3931032 L51.9113852,21.1949996 L48.4117413,21.1949996 L48.4117413,5.34777335 Z"
              id="Shape"
              fill="#0B254B"
              transform="translate(51.036474, 10.597300) scale(-1, 1) rotate(-180.000000) translate(-51.036474, -10.597300) "
            ></path>
            <path
              d="M43.1622754,6.87347112 L44.9120974,6.87347112 L44.9120974,10.4389195 L43.1622754,10.4389195 L43.1622754,21.1953988 L39.6626315,21.1953988 L39.6626315,10.4389195 L37.9128095,10.4389195 L37.9128095,6.87347112 L39.6626315,6.87347112 L39.6626315,5.34817264 C39.6626315,2.39445845 42.0101398,0 44.9059379,0 L44.9120974,0 L44.9120974,3.56544843 C43.9456974,3.56544843 43.1622754,4.36453886 43.1622754,5.35026685 L43.1622754,6.87347112 Z M23.3309598,19.7071418 L23.3309598,25.94933 L19.8313157,25.94933 L19.8313157,4.55663943 L23.3309598,4.55663943 L23.3309598,6.04489647 C24.6513012,5.10673398 26.2564548,4.55663943 27.9875702,4.55663943 L28.0067329,4.55663943 C32.5113079,4.55663943 36.1629876,8.28135258 36.1629876,12.8760191 C36.1629876,17.4706856 32.5113079,21.1953988 28.0067329,21.1953988 L27.9875702,21.1953988 C26.2564548,21.1953988 24.6513012,20.6453042 23.3309598,19.7071418 Z M27.9916766,8.12208786 C25.4176338,8.12208786 23.3309598,10.2504954 23.3309598,12.8760191 C23.3309598,15.5015428 25.4176338,17.6299502 27.9916766,17.6299502 L28.0026267,17.6299502 C30.5766695,17.6299502 32.6633435,15.5015428 32.6633435,12.8760191 C32.6633435,10.2504954 30.5766695,8.12208786 28.0026267,8.12208786 L27.9916766,8.12208786 Z M0,12.8760191 L0,4.55663943 L3.49964395,4.55663943 L3.49964395,6.04489647 L3.49964395,12.8760191 C3.49964395,15.5015428 5.58631799,17.6299502 8.16036085,17.6299502 L8.17131093,17.6299502 C10.7453538,17.6299502 12.8320278,15.5015428 12.8320278,12.8760191 L12.8320278,9.46045778 L12.8320278,4.55663943 L16.3316717,4.55663943 L16.3316717,21.1953988 L12.8320278,21.1953988 L12.8320278,19.7071418 C11.5116863,20.6453042 9.90653284,21.1953988 8.17541721,21.1953988 L8.15625457,21.1953988 C3.65167956,21.1953988 0,17.4706856 0,12.8760191 Z"
              id="Shape"
              fill="#0B254B"
            ></path>
          </g>
        </g>
      </g>
    </g>
  </g>
</svg>